# xmcd CD database file
#
# Track frame offsets:
#	150
#	11175
#	31172
#	61022
#	74015
#	100340
#	129890
#	149062
#	168337
#	195149
#
# Disc length: 3199 seconds
#
# Revision: 0
# Processed by: cddbd v1.5.1PL0 Copyright (c) Steve Scherf et al.
# Submitted via: CDex 1.51
#
DISCID=850c7d0a
DTITLE=MARIALY PACHECO - Bendiciones
DYEAR=2005
DGENRE=Jazz
TTITLE0=RAICES
TTITLE1=EL BODEGUERO
TTITLE2=BENDICIONES
TTITLE3=VEINTE AMOS
TTITLE4=KID
TTITLE5=A PUERTO PADRE
TTITLE6=ASI Y YA
TTITLE7=TRES PALABRAS
TTITLE8=NONA CHA 
TTITLE9=SILENCIOS
EXTD=YEAR: 2005
EXTT0=
EXTT1=
EXTT2=
EXTT3=
EXTT4=
EXTT5=
EXTT6=
EXTT7=
EXTT8=
EXTT9=
PLAYORDER=
